<svg width="90" height="60" viewBox="0 0 90 60" fill="none" xmlns="http://www.w3.org/2000/svg">
<path d="M33.3871 0H0V52.6829H33.3871V0Z" fill="#EDE9E8"/>
<path d="M33.3873 52.6829H34.8389L34.8389 -6.10352e-05H33.3873L33.3873 52.6829Z" fill="#DAD2D0"/>
<path d="M33.3872 49.7561V1.46338L1.45171 1.46338L1.45171 49.7561H33.3872Z" fill="#FBFBF9"/>
<path d="M23.0191 21.9756C26.2103 18.7584 26.2103 13.5424 23.0191 10.3252C19.8279 7.10807 14.6539 7.10807 11.4627 10.3252C8.27154 13.5424 8.27154 18.7584 11.4627 21.9756C14.6539 25.1927 19.8279 25.1927 23.0191 21.9756Z" fill="#EDE9E8"/>
<path d="M26.1288 29.2683H7.25781V30.7317H26.1288V29.2683Z" fill="#EDE9E8"/>
<path d="M26.1288 33.6586H7.25781V36.5854H26.1288V33.6586Z" fill="#EDE9E8"/>
<path d="M26.1288 40.9756H7.25781V42.439H26.1288V40.9756Z" fill="#EDE9E8"/>
<path d="M88.5482 7.31702H55.1611V59.9999H88.5482V7.31702Z" fill="#EDE9E8"/>
<path d="M88.5484 60H90V7.31708H88.5484V60Z" fill="#DAD2D0"/>
<path d="M87.0967 57.0732V8.78052L56.6128 8.78052V57.0732H87.0967Z" fill="#FBFBF9"/>
<path d="M80.1163 25.494C81.153 21.0659 78.4327 16.629 74.0403 15.5839C69.648 14.5388 65.2468 17.2813 64.2101 21.7093C63.1734 26.1374 65.8937 30.5743 70.2861 31.6194C74.6784 32.6645 79.0796 29.922 80.1163 25.494Z" fill="#EDE9E8"/>
<path d="M82.742 36.5854H62.4194V38.0489H82.742V36.5854Z" fill="#EDE9E8"/>
<path d="M82.742 42.439H62.4194V45.3658H82.742V42.439Z" fill="#EDE9E8"/>
<path d="M82.742 48.2927H62.4194V49.7561H82.742V48.2927Z" fill="#EDE9E8"/>
</svg>
