<svg width="178" height="266" viewBox="0 0 178 266" fill="none" xmlns="http://www.w3.org/2000/svg">
<path d="M169.524 265.46H9.43221L0.672241 7.9933H160.764L169.524 265.46Z" fill="#2540AA"/>
<path d="M177.518 257.467H17.4255L8.65427 0H168.747L177.518 257.467Z" fill="#2E50D4"/>
<path d="M177.518 257.467H17.4255L8.65427 0H168.747L177.518 257.467Z" fill="#8296E5"/>
<path d="M128.385 73.8453C128.616 79.9803 127.277 86.0726 124.496 91.5457C121.494 97.4438 116.908 102.389 111.252 105.826C105.597 109.263 99.0951 111.056 92.4772 111.005C85.7038 110.968 79.0591 109.151 73.2097 105.736C67.3603 102.32 62.5119 97.4265 59.151 91.5457C56.0172 86.1567 54.2664 80.0757 54.0551 73.8453C53.8471 69.0145 54.6235 64.1918 56.337 59.6702C58.0505 55.1487 60.6654 51.0227 64.0228 47.543C67.3802 44.0632 71.41 41.3024 75.8674 39.4283C80.3247 37.5541 85.1166 36.6058 89.9518 36.6408C99.9128 36.7113 109.464 40.6162 116.621 47.5445C123.778 54.4728 127.991 63.8919 128.385 73.8453Z" fill="white"/>
<path opacity="0.6" d="M124.473 91.5458C121.471 97.4439 116.885 102.389 111.23 105.826C105.574 109.263 99.0726 111.057 92.4547 111.005C85.6813 110.968 79.0365 109.151 73.1872 105.736C67.3378 102.32 62.4894 97.4266 59.1284 91.5458C68.6631 85.0452 79.9454 81.5898 91.4851 81.6359C103.211 81.6612 114.675 85.1051 124.473 91.5458Z" fill="#DAD2D0"/>
<path opacity="0.6" d="M102.795 72.9182C109.098 66.5064 108.83 56.0221 102.196 49.5008C95.5624 42.9795 85.075 42.8907 78.7719 49.3025C72.4689 55.7143 72.737 66.1986 79.3708 72.7199C86.0046 79.2413 96.4921 79.33 102.795 72.9182Z" fill="#DAD2D0"/>
<path d="M145.353 164.23H43.232L42.5443 143.937H144.665L145.353 164.23Z" fill="white"/>
<path d="M146.593 200.499H44.4608L43.7731 180.205H145.905L146.593 200.499Z" fill="white"/>
<path d="M129.738 228.921H63.2548L62.8151 215.707H129.287L129.738 228.921Z" fill="#2E50D4"/>
<path d="M97.6633 154.083C97.6831 154.565 97.6049 155.046 97.4334 155.497C97.2618 155.948 97.0005 156.359 96.6653 156.706C96.3301 157.053 95.9279 157.328 95.4832 157.514C95.0385 157.701 94.5604 157.796 94.0781 157.792C93.084 157.785 92.1309 157.395 91.4154 156.705C90.7 156.015 90.277 155.076 90.2336 154.083C90.2138 153.601 90.292 153.12 90.4635 152.669C90.6351 152.219 90.8964 151.807 91.2316 151.461C91.5668 151.114 91.969 150.839 92.4137 150.652C92.8585 150.465 93.3365 150.37 93.8188 150.374C94.8137 150.379 95.7684 150.767 96.4845 151.458C97.2005 152.149 97.6227 153.089 97.6633 154.083Z" fill="#575453"/>
<path d="M81.6315 154.083C81.653 154.565 81.5759 155.047 81.405 155.499C81.234 155.95 80.9727 156.362 80.6372 156.709C80.3016 157.056 79.8988 157.332 79.4534 157.518C79.0079 157.704 78.5292 157.797 78.0464 157.792C77.0534 157.784 76.1015 157.395 75.3879 156.704C74.6743 156.014 74.2537 155.075 74.2132 154.083C74.1933 153.601 74.2715 153.12 74.4431 152.669C74.6146 152.219 74.8759 151.807 75.2112 151.461C75.5464 151.114 75.9485 150.839 76.3933 150.652C76.838 150.465 77.316 150.37 77.7983 150.374C78.7921 150.379 79.7456 150.768 80.4598 151.459C81.174 152.15 81.5938 153.09 81.6315 154.083Z" fill="#575453"/>
<path d="M65.7012 154.083C65.7211 154.565 65.6429 155.046 65.4713 155.497C65.2998 155.948 65.0385 156.359 64.7033 156.706C64.368 157.053 63.9659 157.328 63.5211 157.514C63.0764 157.701 62.5984 157.796 62.1161 157.792C61.1223 157.787 60.1688 157.399 59.4546 156.707C58.7404 156.016 58.3206 155.076 58.2829 154.083C58.263 153.601 58.3412 153.12 58.5128 152.669C58.6843 152.219 58.9456 151.807 59.2809 151.461C59.6161 151.114 60.0183 150.839 60.463 150.652C60.9077 150.465 61.3857 150.37 61.868 150.374C62.8618 150.379 63.8153 150.768 64.5295 151.459C65.2437 152.15 65.6635 153.09 65.7012 154.083Z" fill="#575453"/>
<path d="M113.639 154.083C113.659 154.565 113.58 155.046 113.409 155.497C113.237 155.948 112.976 156.359 112.641 156.706C112.305 157.053 111.903 157.328 111.459 157.514C111.014 157.701 110.536 157.796 110.054 157.792C109.06 157.787 108.106 157.399 107.392 156.707C106.678 156.016 106.258 155.076 106.22 154.083C106.204 153.603 106.284 153.124 106.458 152.675C106.632 152.227 106.895 151.819 107.231 151.475C107.568 151.131 107.97 150.86 108.415 150.676C108.859 150.493 109.336 150.401 109.817 150.408C110.803 150.415 111.749 150.801 112.46 151.484C113.171 152.168 113.593 153.098 113.639 154.083Z" fill="#575453"/>
<path d="M129.614 154.083C129.636 154.565 129.559 155.047 129.388 155.499C129.217 155.95 128.955 156.362 128.62 156.709C128.284 157.056 127.882 157.332 127.436 157.518C126.991 157.704 126.512 157.797 126.029 157.792C125.036 157.784 124.084 157.395 123.371 156.704C122.657 156.014 122.236 155.075 122.196 154.083C122.176 153.601 122.254 153.12 122.426 152.669C122.597 152.219 122.859 151.807 123.194 151.461C123.529 151.114 123.931 150.839 124.376 150.652C124.821 150.465 125.299 150.37 125.781 150.374C126.775 150.379 127.728 150.768 128.442 151.459C129.157 152.15 129.576 153.09 129.614 154.083Z" fill="#575453"/>
</svg>
