<svg width="139" height="155" viewBox="0 0 139 155" fill="none" xmlns="http://www.w3.org/2000/svg">
<path d="M123.525 78.7569H65.6133L62.0984 38.201H120.01L123.525 78.7569Z" fill="#DAD2D0"/>
<path d="M126.525 78.7569H68.6135L65.0987 38.201H123.011L126.525 78.7569Z" fill="#F4F2F1"/>
<path d="M76.5328 70.0439L74.5966 46.9053H115.091L117.028 70.0439H76.5328Z" fill="white"/>
<path d="M136.547 78.7569H129.753V154.4H136.547V78.7569Z" fill="#DAD2D0"/>
<path d="M138.692 78.7569H133.974V154.4H138.692V78.7569Z" fill="#F4F2F1"/>
<path d="M72.922 87.1035L138.692 87.1035V78.7568L72.922 78.7568V87.1035Z" fill="#F4F2F1"/>
<path d="M75.2421 87.1035H68.4479V154.4H75.2421V87.1035Z" fill="#DAD2D0"/>
<path d="M77.3876 87.1035H72.6691V154.4H77.3876V87.1035Z" fill="#F4F2F1"/>
<path d="M26.8803 87.1035H20.0861V154.4H26.8803V87.1035Z" fill="#DAD2D0"/>
<path d="M29.0257 87.1035H24.3073V154.4H29.0257V87.1035Z" fill="#F4F2F1"/>
<path d="M93.5489 87.1035H86.7547V154.4H93.5489V87.1035Z" fill="#DAD2D0"/>
<path d="M95.6856 87.1035H90.9672V154.4H95.6856V87.1035Z" fill="#F4F2F1"/>
<path d="M72.922 78.7569H20.0861V87.1035H72.922V78.7569Z" fill="#DAD2D0"/>
<path d="M48.074 66.311C48.1616 66.3119 48.2484 66.2936 48.3283 66.2575C48.4081 66.2213 48.4791 66.1681 48.5363 66.1017C49.6613 64.7673 48.7368 61.5751 47.4635 57.1532C45.8238 51.4841 43.7829 44.4196 45.5098 39.3C46.467 36.5957 47.5854 33.9512 48.8589 31.3807C51.301 26.2174 53.4117 21.7868 51.6499 17.0945C51.6224 17.0199 51.5804 16.9514 51.5263 16.8931C51.4722 16.8348 51.407 16.7878 51.3347 16.7548C51.2623 16.7218 51.1841 16.7035 51.1046 16.701C51.025 16.6984 50.9458 16.7116 50.8715 16.7399C50.7971 16.7681 50.7291 16.8108 50.6713 16.8655C50.6136 16.9202 50.5672 16.9859 50.535 17.0586C50.5027 17.1313 50.4852 17.2097 50.4835 17.2892C50.4817 17.3687 50.4958 17.4478 50.5248 17.5219C52.1034 21.6996 50.1934 25.7465 47.7687 30.8748C46.479 33.4866 45.3432 36.1717 44.3673 38.9162C42.527 44.3934 44.6202 51.6586 46.3035 57.4847C47.2978 60.9733 48.3269 64.462 47.6205 65.3342C47.5644 65.3944 47.5215 65.4656 47.4944 65.5434C47.4674 65.6211 47.4568 65.7036 47.4633 65.7856C47.4699 65.8677 47.4935 65.9474 47.5325 66.0199C47.5716 66.0923 47.6253 66.1558 47.6902 66.2064C47.8017 66.2857 47.9377 66.3228 48.074 66.311Z" fill="#1C307F"/>
<path d="M58.1301 60.1012V62.2118H56.7869L55.6706 78.7569H39.2389L38.1313 62.2118H36.7794V60.1012H58.1301Z" fill="#FFA490"/>
<path d="M52.7226 19.0482C51.3794 9.19267 38.0789 6.38428 21.2024 6.01797C5.14579 5.67782 0 0 0 0C0 0 0.0523263 22.9991 23.191 31.337C45.1609 39.2389 54.0744 28.9211 52.7226 19.0482Z" fill="#5873DD"/>
<path d="M44.5243 41.3844C44.8034 37.3376 51.2749 29.8892 66.8431 33.2733C78.0941 35.724 82.2805 29.8892 82.2805 29.8892C82.2805 29.8892 81.2339 46.3558 64.3138 51.301C48.2397 56.002 44.0272 48.5188 44.5243 41.3844Z" fill="#2E50D4"/>
</svg>
