<svg width="141" height="24" viewBox="0 0 141 24" fill="none" xmlns="http://www.w3.org/2000/svg">
<g clip-path="url(#clip0)">
<path d="M11.9668 3.82792C7.72115 3.82792 4.40818 7.10899 4.40818 11.2908C4.40818 15.5046 7.72115 18.7856 11.9668 18.7856C14.1223 18.7856 16.4053 17.7892 18.0778 16.1486L20.6191 18.9801C18.3026 21.3285 14.9896 22.8399 11.7405 22.8399C5.11452 22.8384 0 17.853 0 11.3546C0 4.92161 5.17832 0 11.9015 0C15.1187 0 18.3998 1.38382 20.5872 3.6031L18.0778 6.75505C16.4691 4.9535 14.1861 3.82792 11.9668 3.82792Z" fill="#273856"/>
<path d="M40.1123 14.025C40.1123 19.2686 36.4454 22.8064 31.0742 22.8064C25.6376 22.8064 21.9707 19.2686 21.9707 14.025C21.9707 8.81326 25.6376 5.30737 31.0742 5.30737C36.4454 5.30737 40.1123 8.81326 40.1123 14.025ZM26.1844 14.0888C26.1844 17.1769 28.1789 19.3005 31.0742 19.3005C33.9041 19.3005 35.8985 17.1769 35.8985 14.0888C35.8985 11.0006 33.9041 8.87706 31.0742 8.87706C28.1789 8.87857 26.1844 11.0006 26.1844 14.0888Z" fill="#273856"/>
<path d="M60.4754 11.9015V22.6455H56.2617V13.1243C56.2617 10.7121 54.8141 9.23261 52.4338 9.23261C49.6038 9.26451 47.9299 11.3562 47.9299 14.1861V22.6455H43.748V5.4366H47.9299V8.65387C49.1527 6.36927 51.3067 5.309 54.1062 5.2771C58.0632 5.27558 60.4754 7.81689 60.4754 11.9015Z" fill="#273856"/>
<path d="M80.5794 15.5046H67.8728C68.4197 17.9487 70.285 19.4282 72.7944 19.4282C74.5641 19.4282 76.2046 18.7522 77.4259 17.4975L79.6771 19.8459C77.9727 21.7113 75.4633 22.8049 72.439 22.8049C67.0996 22.8049 63.5938 19.2672 63.5938 14.0873C63.5938 8.84369 67.1969 5.30591 72.3433 5.30591C78.392 5.30743 80.9971 9.26446 80.5794 15.5046ZM76.7834 12.7065C76.6861 10.1652 74.9818 8.5566 72.3767 8.5566C69.8992 8.5566 68.1629 10.1652 67.7771 12.7065H76.7834Z" fill="#273856"/>
<path d="M86.2407 5.43652L89.8119 11.0341L93.4788 5.43652H98.0784L92.6099 13.8321L98.4642 22.6454H93.6398L89.8119 16.6301L85.662 22.6454H80.9971L87.0124 13.8321L81.4148 5.43652H86.2407Z" fill="#273856"/>
<path d="M110.882 22.6455V20.5553C109.693 22.0668 107.762 22.8384 105.318 22.8384C101.619 22.8384 99.3027 20.5553 99.3027 17.4991C99.3027 14.3152 101.651 12.3527 105.833 12.3208H110.85V11.8711C110.85 9.87667 109.532 8.68729 106.959 8.68729C105.35 8.68729 103.614 9.23413 101.844 10.2959L100.333 7.40068C102.81 6.01686 104.739 5.2771 107.891 5.2771C112.395 5.2771 114.936 7.56018 114.968 11.3881L115 22.647H110.882V22.6455ZM110.849 16.6621V15.1188H106.506C104.287 15.1188 103.257 15.7294 103.257 17.2424C103.257 18.69 104.414 19.6227 106.313 19.6227C108.727 19.6211 110.624 18.3345 110.849 16.6621Z" fill="#273856"/>
<g clip-path="url(#clip1)">
<path d="M129.316 16.5631C127.692 14.9685 125.466 13.983 123.008 13.983C123.005 13.983 123.002 13.983 123 13.983V11.4046H129.416V5H134.584V11.4046H141V16.5631H134.584V22.9676H131.999C131.999 22.9645 131.999 22.9614 131.999 22.9599C131.999 20.5079 131.014 18.2841 129.416 16.6648L129.316 16.5631Z" fill="#F28080"/>
<path d="M123.024 20.3661V22.9677C124.463 22.9677 125.629 22.9662 125.629 22.9662C125.631 21.5304 124.464 20.3661 123.024 20.3661Z" fill="#F28080"/>
<path d="M129.843 22.9986C129.843 19.2403 126.791 16.1946 123.026 16.1946V18.2271C125.667 18.2271 127.806 20.363 127.806 22.9986H129.843Z" fill="#F28080"/>
</g>
</g>
<defs>
<clipPath id="clip0">
<rect width="141" height="23.2636" fill="white"/>
</clipPath>
<clipPath id="clip1">
<rect width="18" height="18" fill="white" transform="translate(123 5.26367)"/>
</clipPath>
</defs>
</svg>
