<svg width="81" height="89" viewBox="0 0 81 89" fill="none" xmlns="http://www.w3.org/2000/svg">
<ellipse cx="42" cy="86.5" rx="39" ry="2.5" fill="#DAD2D0"/>
<path fill-rule="evenodd" clip-rule="evenodd" d="M17.3745 0.0638603C18.4276 -0.0653158 19.5516 -0.0195536 20.531 0.397501C22.6136 1.28512 23.2056 3.75498 23.177 5.76274C23.1463 7.9233 22.6892 10.2835 24.3256 12.0244C25.0778 12.8246 26.0135 13.4373 26.7522 14.2526C27.5414 15.1236 28.1607 16.1201 28.6192 17.1904C29.4612 19.1561 29.8744 21.468 29.1045 23.53C28.4266 25.3458 26.7212 26.9845 27.0897 29.0491C27.4741 31.2027 29.637 32.8491 30.9892 34.4535C32.5197 36.2686 33.9289 38.589 34.1605 40.9695C34.3822 43.2511 33.3929 45.5586 31.8748 47.2832C28.8413 50.7297 24.2815 52.4189 19.6839 52.4086C17.7318 52.4042 15.5217 52.3156 13.8372 51.2626C13.3165 50.9371 13.0418 50.5717 12.7323 50.0642C12.4548 49.6088 12.0883 49.3128 11.664 48.9906C10.7318 48.2831 10.0585 47.3297 9.62889 46.2624C7.96054 42.1166 9.294 36.9879 11.6293 33.3064C12.1827 32.4343 12.6357 31.5946 12.3669 30.5553C12.0864 29.4699 11.3969 28.4911 10.7871 27.5584C10.1844 26.6361 9.49646 25.7566 9.02547 24.7601C8.53216 23.7156 8.39326 22.6221 8.4804 21.4794C8.64422 19.3325 9.56735 17.3513 10.8743 15.6251C12.1332 13.9621 13.6112 12.3706 13.6146 10.192C13.6182 7.88233 12.0802 5.82806 12.7354 3.48001C13.0067 2.50786 13.5517 1.51026 14.4298 0.927493C15.272 0.368345 16.384 0.185286 17.3745 0.0638603Z" fill="#3D76F5"/>
<path fill-rule="evenodd" clip-rule="evenodd" d="M16.6864 3.75576C16.7061 3.44573 17.0726 3.25972 17.3611 3.34055C17.7409 3.44721 17.7336 3.80337 17.7236 4.12077C17.6928 5.09624 17.8335 6.04438 18.0671 6.99106C18.5526 8.95896 19.4498 10.7719 20.1607 12.6623C20.8709 14.5508 21.2043 16.501 20.7876 18.4995C20.3948 20.384 19.7778 22.2194 19.3758 24.1062C19.0215 25.7692 18.6445 27.523 19.1841 29.1817C19.7033 30.7783 20.8511 32.0785 21.6777 33.5212C23.3887 36.5082 24.1478 39.8217 24.2493 43.2316C24.2964 44.8149 24.254 46.413 23.8881 47.9661C23.6775 48.8603 23.3945 50.0687 22.6311 50.6862C22.2791 50.9711 21.6771 51.0693 21.3809 50.6478C21.1028 50.2525 21.3468 49.6402 21.435 49.2187C21.8175 47.394 21.8944 45.5294 21.8028 43.6771C21.7142 41.8826 21.503 40.0911 20.9404 38.3772C20.4183 36.7868 19.625 35.3581 18.6914 33.9667C17.74 32.5491 16.751 31.1282 16.3579 29.4481C15.9586 27.7419 16.283 26.0058 16.7169 24.332C17.1757 22.5619 17.7767 20.8424 18.398 19.12C19.0035 17.4418 19.2181 15.8537 18.8838 14.0972C18.2235 10.6272 16.4561 7.36973 16.6864 3.75576Z" fill="#245EDE"/>
<path fill-rule="evenodd" clip-rule="evenodd" d="M45.1809 4.27455C46.4842 4.67204 47.7787 5.31276 48.7077 6.31775C50.6831 8.45506 50.0768 11.6852 48.9864 14.0443C47.8125 16.5836 46.0338 19.1361 47.0367 22.0496C47.4974 23.3889 48.2724 24.6021 48.7095 25.9518C49.1768 27.3941 49.3783 28.8963 49.3526 30.4013C49.3051 33.1657 48.5728 36.1157 46.5838 38.1523C44.8327 39.9456 41.9698 40.993 41.315 43.6268C40.6316 46.3745 42.3018 49.4515 43.0434 52.0546C43.8823 55.0009 44.3136 58.4809 43.3316 61.4173C42.3908 64.2314 40.0154 66.4437 37.3264 67.6904C31.954 70.1817 25.7164 69.7982 20.3293 67.3848C18.0421 66.3599 15.4965 65.1014 14.0751 62.9762C13.6359 62.3193 13.506 61.7439 13.4102 60.9821C13.3244 60.2986 13.0504 59.7572 12.7223 59.1545C12.0014 57.831 11.7138 56.3517 11.7719 54.8651C11.9979 49.0909 16.2623 43.722 20.9397 40.5878C22.048 39.8452 23.0213 39.0894 23.2534 37.7193C23.4958 36.2892 23.2024 34.7715 22.9783 33.3499C22.7569 31.9448 22.4131 30.5456 22.3855 29.1206C22.3567 27.6281 22.7696 26.2622 23.4736 24.9564C24.796 22.5031 26.9218 20.6423 29.3638 19.283C31.7158 17.9739 34.2875 16.8637 35.4386 14.2886C36.6588 11.5593 35.9364 8.32661 37.9411 5.89183C38.7713 4.88389 39.9356 3.98852 41.2728 3.75785C42.5548 3.53677 43.9551 3.90104 45.1809 4.27455Z" fill="#6695FF"/>
<path fill-rule="evenodd" clip-rule="evenodd" d="M42.5187 8.78791C42.7036 8.43102 43.2293 8.40334 43.5245 8.65098C43.9128 8.97725 43.7183 9.39503 43.5411 9.76559C42.9962 10.9049 42.6661 12.1015 42.4455 13.3452C41.9867 15.9313 42.09 18.5503 41.9348 21.163C41.7801 23.7734 41.1525 26.2584 39.6227 28.4057C38.1801 30.4308 36.501 32.2799 35.0466 34.3028C33.765 36.0854 32.4091 37.964 32.1749 40.212C31.9488 42.3759 32.6128 44.5199 32.8264 46.6634C33.269 51.1008 32.4278 55.4242 30.7677 59.5157C29.9966 61.4157 29.1134 63.2858 27.8753 64.9323C27.1625 65.8808 26.2011 67.163 24.9864 67.4922C24.4263 67.6442 23.671 67.4442 23.5446 66.7891C23.4257 66.1742 24.0303 65.5778 24.3535 65.1249C25.7525 63.1655 26.8152 60.9979 27.6746 58.7558C28.5072 56.5842 29.1949 54.3516 29.4311 52.0257C29.6503 49.8677 29.468 47.7585 29.1021 45.6197C28.7294 43.4403 28.3142 41.2369 28.731 39.0409C29.1542 36.8099 30.4394 34.9247 31.8198 33.1708C33.2797 31.3158 34.8797 29.596 36.5047 27.8831C38.0881 26.2141 39.1676 24.4466 39.6933 22.1909C40.7315 17.7335 40.3643 12.9463 42.5187 8.78791Z" fill="#3D76F5"/>
<path fill-rule="evenodd" clip-rule="evenodd" d="M4.89191 20.6682C7.05894 20.6682 8.96409 21.8212 10.2769 23.4577C11.8136 25.3732 12.124 27.7124 12.748 29.9955C13.0585 31.1315 13.5925 32.2594 14.5285 33.0315C15.3797 33.7334 16.4603 33.8737 17.4792 34.2169C19.5155 34.9023 21.1598 36.5535 21.8092 38.5679C22.6014 41.0256 21.7623 43.504 21.9068 45.9948C22.0394 48.282 24.2859 49.7088 26.0933 50.8054C27.8756 51.8867 29.4811 52.8987 30.0179 55.005C30.5871 57.239 30.7781 59.7325 29.9897 61.9392C28.677 65.6137 24.8355 67.2317 21.1236 67.4823C17.7549 67.7101 13.5191 67.3528 10.9892 64.8981C9.47537 63.4292 8.92717 61.3745 8.99519 59.3306C9.03743 58.0595 9.28824 56.8002 9.61251 55.5719C9.84232 54.7017 10.1528 53.8347 10.2413 52.9353C10.4764 50.5418 8.27302 50.0823 6.39743 49.425C4.01408 48.5902 2.34555 47.0127 1.18529 44.8149C0.104775 42.7688 -0.348572 40.472 0.299149 38.2192C0.629959 37.0688 1.23 36.0254 2.04375 35.1378C2.40198 34.7469 2.90684 34.421 3.23018 34.0106C3.53195 33.6272 3.46625 33.1304 3.36224 32.6816C2.88136 30.6077 1.38308 28.8905 0.847239 26.8199C0.363488 24.9513 0.649444 22.6258 2.35125 21.4204C3.08651 20.8996 3.99323 20.6741 4.89191 20.6682Z" fill="#2E50D4"/>
<path fill-rule="evenodd" clip-rule="evenodd" d="M7.84428 26.0718C10.1411 28.528 10.7654 31.8604 10.9486 35.0902C11.0512 36.9012 10.9444 38.8115 11.4745 40.5683C11.928 42.0719 12.9912 43.2212 14.0872 44.3078C16.2932 46.4942 18.7535 48.7175 19.3988 51.8823C19.7774 53.7395 19.5218 55.658 20.045 57.4945C20.5207 59.1642 21.3582 60.8043 22.377 62.2142C23.1972 63.3498 24.2658 64.219 25.1624 65.2771C25.436 65.6004 25.8278 66.0758 25.7149 66.532C25.5828 67.066 24.9051 67.2351 24.4243 67.1513C23.3032 66.9557 22.3595 65.8809 21.6265 65.0996C20.5546 63.9573 19.6438 62.7287 18.9035 61.3502C18.0816 59.8196 17.4199 58.1953 17.1371 56.478C16.8437 54.6965 16.9897 52.8397 16.3197 51.1298C15.1923 48.2528 12.4576 46.5551 10.4805 44.3126C8.01708 41.5187 8.38447 38.0413 8.63679 34.6041C8.77539 32.7152 8.91318 30.5823 7.96245 28.8576C7.59954 28.1995 6.79039 27.5858 6.63436 26.8373C6.49141 26.1519 7.27149 25.4592 7.84428 26.0718Z" fill="#2C65E6"/>
<path fill-rule="evenodd" clip-rule="evenodd" d="M10.2939 66.4333C10.2939 80.4796 12.5773 87.8397 24.6321 87.8397C36.6868 87.8397 38.9703 80.4796 38.9703 66.4333H10.2939Z" fill="#FFA490"/>
</svg>
